<svg xmlns="http://www.w3.org/2000/svg" width="124.556" height="24" viewBox="0 0 124.556 24">
    <defs>
        <style>.header_bar__logo__fill_class fill: #2d3e53</style>
    </defs>
    <g id="Group_805" data-name="Group 805" transform="translate(-20.885 -97.277)">
        <path
        id="Path_1"
        d="M72.536 116.5h-1.369a.259.259 0 0 1-.242-.242v-3.435h-4.132s-2.5 3.542-2.5 3.569l-.081.081a.2.2 0 0 1-.134.027h-1.607a.254.254 0 0 1-.215-.134.261.261 0 0 1 .027-.242c.027-.053 7.81-11.11 8.024-11.406a1.333 1.333 0 0 1 1.422-.59 1.36 1.36 0 0 1 1.047 1.369v10.76a.284.284 0 0 1-.24.243zm-1.611-9.071s0-.134-.108-.161c-.108-.053-.215.081-.215.081L68.027 111h2.9z"
        className="header_bar__logo__fill_class"
        data-name="Path 1"
        transform="translate(-11.069 -1.827)"
        />
        <path
        id="Path_2"
        d="M149.9 107.076h1.343a.24.24 0 0 1 .242.239v6.873a.177.177 0 0 0 .322.108c.108-.161 4.885-7.03 4.911-7.058l.081-.081a.2.2 0 0 1 .134-.027h1.611a.257.257 0 0 1 .215.134.26.26 0 0 1-.027.242c-.027.053-6.441 9.154-6.629 9.447a1.333 1.333 0 0 1-1.422.59 1.36 1.36 0 0 1-1.047-1.369v-8.83a.284.284 0 0 1 .266-.268z"
        className="header_bar__logo__fill_class"
        data-name="Path 2"
        transform="translate(-34.459 -2.623)"
        />
        <path
        id="Path_3"
        d="M85.455 117.472a4.11 4.11 0 0 1-3.569-1.717h-.027v4.614a.259.259 0 0 1-.242.242h-1.448a.259.259 0 0 1-.242-.242v-11.726a.26.26 0 0 1 .242-.242h.644a2.194 2.194 0 0 0 1.422-.513 5.173 5.173 0 0 1 8.32 4.4 5.048 5.048 0 0 1-4.912 5.181c-.062.003-.125.004-.188.003zm-.242-8.935a3.485 3.485 0 0 0-3.382 3.585v.012a3.425 3.425 0 1 0 6.842.327c.005-.1.005-.2 0-.3a3.575 3.575 0 0 0-3.463-3.626z"
        className="header_bar__logo__fill_class"
        data-name="Path 3"
        transform="translate(-15.803 -2.553)"
        />
        <path
        id="Path_4"
        d="M102.385 117.472a4.11 4.11 0 0 1-3.569-1.717h-.027v4.614a.259.259 0 0 1-.242.242H97.1a.259.259 0 0 1-.242-.242v-11.726a.26.26 0 0 1 .242-.242h.644a2.194 2.194 0 0 0 1.422-.513 5.173 5.173 0 0 1 8.32 4.4 5.048 5.048 0 0 1-4.912 5.181 2.979 2.979 0 0 1-.189.003zm-.242-8.935a3.485 3.485 0 0 0-3.382 3.585v.012a3.425 3.425 0 1 0 6.842.327c.005-.1.005-.2 0-.3a3.575 3.575 0 0 0-3.463-3.626z"
        className="header_bar__logo__fill_class"
        data-name="Path 4"
        transform="translate(-20.334 -2.553)"
        />
        <path
        id="Path_5"
        d="M127.5 110.9a6.705 6.705 0 0 1-3.837 4.669 7.03 7.03 0 1 1 2.9-10.091v.027a.265.265 0 0 1-.215.376h-1.772a.3.3 0 0 1-.188-.081 4.717 4.717 0 0 0-3.623-1.744 5.224 5.224 0 0 0 0 10.44 4.942 4.942 0 0 0 4.563-3.14c.027-.081.027-.134 0-.161a.206.206 0 0 0-.134-.053h-5.824a.24.24 0 0 1-.242-.239v-1.344a.24.24 0 0 1 .237-.242h6.821a1.3 1.3 0 0 1 .94.4 1.161 1.161 0 0 1 .374 1.183z"
        className="header_bar__logo__fill_class"
        data-name="Path 5"
        transform="translate(-24.812 -1.317)"
        />
        <path
        id="Path_6"
        d="M171.233 112.966h-7.06a3.442 3.442 0 0 0 3.328 2.765 3.333 3.333 0 0 0 2.818-1.556.257.257 0 0 1 .215-.134h1.4a.226.226 0 0 1 .215.322v.027a5.114 5.114 0 0 1-4.724 3.086 5.281 5.281 0 0 1-5.153-5.341 5.181 5.181 0 0 1 10.333-.671v.053a1.345 1.345 0 0 1-1.238 1.445 1.277 1.277 0 0 1-.134.004zm-.533-1.666a3.333 3.333 0 0 0-3.247-2.738 3.29 3.29 0 0 0-3.276 2.952h6.36c.081.003.163-.105.163-.214z"
        className="header_bar__logo__fill_class"
        data-name="Path 6"
        transform="translate(-37.842 -2.556)"
        />
        <path
        id="Path_7"
        d="M184.138 108.563a3.393 3.393 0 0 0-3.033 3.113v5.314a.259.259 0 0 1-.242.242h-1.422a.24.24 0 0 1-.242-.239v-8.352a.246.246 0 0 1 .242-.242h.617a2.673 2.673 0 0 0 1.691-.671 5.725 5.725 0 0 1 2.362-.912h.027a.265.265 0 0 1 .268.242v1.261a.4.4 0 0 1-.268.244z"
        className="header_bar__logo__fill_class"
        data-name="Path 7"
        transform="translate(-42.374 -2.553)"
        />
        <path
        id="Path_8"
        d="M136.167 114.634v-7.353a.24.24 0 0 0-.237-.242h-1.43a.24.24 0 0 0-.242.237v10.041l-.081.108s-1.9 2.71-2.012 2.844a.238.238 0 0 0 .056.332.231.231 0 0 0 .132.044h1.747a.277.277 0 0 0 .215-.108c.913-1.261 9.154-12.935 9.285-13.1a.228.228 0 0 0-.188-.376h-1.744a.281.281 0 0 0-.215.108c-.027.053-5.126 7.246-5.126 7.246z"
        className="header_bar__logo__fill_class"
        data-name="Path 8"
        transform="translate(-29.774 -2.613)"
        />
        <path
        id="Path_9"
        d="M188.481 117.117a1.463 1.463 0 1 1-.027 0zm0 .293a1.1 1.1 0 0 0-1.1 1.1v.057a1.124 1.124 0 0 0 1.092 1.154h.035a1.1 1.1 0 0 0 1.1-1.1v-.057a1.141 1.141 0 0 0-1.126-1.154zm-.215 1.878h-.322v-1.42a2.857 2.857 0 0 1 .564-.053 1.028 1.028 0 0 1 .513.108.384.384 0 0 1 .134.293.4.4 0 0 1-.293.349v.027a.467.467 0 0 1 .268.349 1.812 1.812 0 0 0 .108.349h-.349a.754.754 0 0 1-.108-.349.256.256 0 0 0-.268-.244h-.186v.59zm0-.806h.161c.188 0 .322-.053.322-.215 0-.134-.108-.215-.293-.215-.081 0-.161 0-.188.027z"
        className="header_bar__logo__fill_class"
        data-name="Path 9"
        transform="translate(-44.463 -5.31)"
        />
        <path
        id="Path_948"
        d="M33.214 104.614a.336.336 0 0 0-.336.337v3.6a.336.336 0 0 0 .336.336h8.4a.254.254 0 0 0 .242-.163l1.672-4.067.056-.13a.324.324 0 0 0 .012-.034.4.4 0 0 1-.142.085.52.52 0 0 1-.174.028zm1.98-6.475l-1.9 1.9 3.969 3.969H43a.222.222 0 0 0 .073-.01.089.089 0 0 0 .033-.019.08.08 0 0 0 .016-.023.131.131 0 0 0 .007-.04.306.306 0 0 0-.076-.175l-.578-.577-.1-.1-4.548-4.517a3.3 3.3 0 0 0-.858-.613 1.836 1.836 0 0 0-.784-.19 1.431 1.431 0 0 0-.576.119 1.355 1.355 0 0 0-.415.276zm5.865 11.52a.285.285 0 0 0-.133-.052h-7.708a.337.337 0 0 0-.336.337v3.6a.337.337 0 0 0 .336.336h3.821l4.006-4.007a.185.185 0 0 0 .065-.125.093.093 0 0 0-.011-.044.125.125 0 0 0-.039-.045zm-10.443 10.767l1.9-1.9-2.5-2.518.009-.008-6.425-6.407-1.9 1.9a1.359 1.359 0 0 0-.278.411 1.423 1.423 0 0 0-.119.577 1.828 1.828 0 0 0 .19.785 3.287 3.287 0 0 0 .594.839l5.963 5.98a3.247 3.247 0 0 0 .791.549 1.844 1.844 0 0 0 .787.19 1.434 1.434 0 0 0 .58-.12 1.359 1.359 0 0 0 .408-.278zm4.16-22.7a1.644 1.644 0 0 1 .5-.341 1.749 1.749 0 0 1 .317-.1h-5.755a1.637 1.637 0 0 0-1.137.463l-7.353 7.311a1.636 1.636 0 0 0-.463 1.137v5.766a1.707 1.707 0 0 1 .1-.32 1.64 1.64 0 0 1 .341-.5zm8.834 16.315l-1.742-4.234v.014a.515.515 0 0 1-.148.273 36308.602 36308.602 0 0 0-10.712 10.722 1.675 1.675 0 0 1-.5.342 1.7 1.7 0 0 1-.425.124h5.849a1.636 1.636 0 0 0 1.137-.463l6.491-6.491a.253.253 0 0 0 .05-.291z"
        className="header_bar__logo__fill_class"
        data-name="Path 948"
        />
    </g>
</svg>