<svg xmlns="http://www.w3.org/2000/svg" xmlns:xlink="http://www.w3.org/1999/xlink" viewBox="0 0 64 64"><defs><style>.cls-1{fill:#f2f2f2;fill-rule:evenodd;}.cls-2{fill:#f4bd4b;}.cls-3{fill:#4a5055;}.cls-15,.cls-16,.cls-17,.cls-4{stroke:#4a5055;stroke-width:0.5px;}.cls-16,.cls-4{stroke-linejoin:round;}.cls-4{fill:url(#linear-gradient);}.cls-5{fill:url(#linear-gradient-2);}.cls-6{fill:url(#linear-gradient-3);}.cls-7{fill:url(#linear-gradient-4);}.cls-8{fill:url(#linear-gradient-5);}.cls-9{fill:url(#linear-gradient-6);}.cls-10{fill:url(#linear-gradient-7);}.cls-11{fill:url(#linear-gradient-8);}.cls-12{fill:url(#linear-gradient-9);}.cls-13{fill:url(#linear-gradient-10);}.cls-14{fill:url(#linear-gradient-11);}.cls-15,.cls-17{stroke-miterlimit:10;}.cls-15{fill:url(#linear-gradient-12);}.cls-16{fill:url(#linear-gradient-13);}.cls-17{fill:url(#linear-gradient-14);}.cls-18{fill:#9da4aa;}</style><linearGradient id="linear-gradient" x1="42.15" y1="38.04" x2="27.14" y2="23.03" gradientUnits="userSpaceOnUse"><stop offset="0.51" stop-color="#fff"/><stop offset="0.87" stop-color="#d9d9d9"/></linearGradient><linearGradient id="linear-gradient-2" x1="57.66" y1="51.14" x2="41.64" y2="41.89" gradientUnits="userSpaceOnUse"><stop offset="0.43" stop-color="#fff"/><stop offset="1" stop-color="#d9d9d9"/></linearGradient><linearGradient id="linear-gradient-3" x1="51.35" y1="54.44" x2="45.38" y2="51" gradientUnits="userSpaceOnUse"><stop offset="0.39" stop-color="#72b5f8"/><stop offset="1" stop-color="#4686d3"/></linearGradient><linearGradient id="linear-gradient-4" x1="46.7" y1="50.47" x2="40.6" y2="46.95" xlink:href="#linear-gradient-3"/><linearGradient id="linear-gradient-5" x1="57.73" y1="47.9" x2="51.94" y2="44.55" xlink:href="#linear-gradient-3"/><linearGradient id="linear-gradient-6" x1="53.81" y1="43.23" x2="47.87" y2="39.8" xlink:href="#linear-gradient-3"/><linearGradient id="linear-gradient-7" x1="26.15" y1="19.63" x2="10.13" y2="10.38" xlink:href="#linear-gradient-2"/><linearGradient id="linear-gradient-8" x1="19.84" y1="22.94" x2="13.88" y2="19.49" xlink:href="#linear-gradient-3"/><linearGradient id="linear-gradient-9" x1="15.2" y1="18.97" x2="9.09" y2="15.44" xlink:href="#linear-gradient-3"/><linearGradient id="linear-gradient-10" x1="26.23" y1="16.4" x2="20.43" y2="13.05" xlink:href="#linear-gradient-3"/><linearGradient id="linear-gradient-11" x1="22.31" y1="11.73" x2="16.37" y2="8.3" xlink:href="#linear-gradient-3"/><linearGradient id="linear-gradient-12" x1="34.42" y1="44.8" x2="16.62" y2="34.52" gradientTransform="translate(35.51 -6.43) rotate(45)" gradientUnits="userSpaceOnUse"><stop offset="0.49" stop-color="#72b5f8"/><stop offset="1" stop-color="#4686d3"/></linearGradient><linearGradient id="linear-gradient-13" x1="25.8" y1="52.91" x2="12.27" y2="39.37" xlink:href="#linear-gradient-2"/><linearGradient id="linear-gradient-14" x1="24.38" y1="53.45" x2="8.33" y2="44.18" gradientTransform="translate(39.31 2.73) rotate(45)" gradientUnits="userSpaceOnUse"><stop offset="0.34" stop-color="#72b5f8"/><stop offset="1" stop-color="#4686d3"/></linearGradient></defs><g id="SERVICES"><path id="BG" class="cls-1" d="M48.26,37.53c0-1.84,1.58-3.14,3.68-3.19,6.52-.13,11.78-5.44,11.13-11.84-.57-5.57-5.66-9.7-11.47-9.7H17.27c-5.82,0-10.91,4.13-11.48,9.7A11,11,0,0,0,16.92,34.34h0a2.37,2.37,0,0,1,2.4,2.32v.05A2.36,2.36,0,0,1,17,39H7.41A6.42,6.42,0,0,0,1,43.72,6.17,6.17,0,0,0,7.2,51.2H45.88a6.41,6.41,0,0,0,6.43-4.93c.53-2.73-1.2-4.79-3.11-6.45A3.07,3.07,0,0,1,48.26,37.53Z"/><path class="cls-2" d="M53.59,1.41c.22-.41.58-.41.8,0L56.16,4.8A3.67,3.67,0,0,0,57.3,6l3.22,1.83a.44.44,0,0,1,0,.84L57.3,10.49a3.54,3.54,0,0,0-1.14,1.17l-1.77,3.39c-.22.41-.58.41-.8,0l-1.78-3.39a3.36,3.36,0,0,0-1.14-1.17L47.46,8.65a.44.44,0,0,1,0-.84L50.67,6A3.47,3.47,0,0,0,51.81,4.8Z"/><path class="cls-2" d="M30.35,56.11c.26-.49.68-.49.94,0l.45.87a4,4,0,0,0,1.34,1.38l.8.45c.48.28.48.72,0,1l-.8.46a4,4,0,0,0-1.34,1.38l-.45.87c-.26.49-.68.49-.94,0l-.45-.87a4,4,0,0,0-1.34-1.38l-.8-.46c-.48-.27-.48-.71,0-1l.8-.45A4,4,0,0,0,29.9,57Z"/><rect class="cls-3" x="24.31" y="19.82" width="0.77" height="5.75" transform="translate(58.2 21.28) rotate(135)"/><path class="cls-4" d="M32.93,47.25l16.6-16.59c1-1-1.53-5.2-5.67-9.34s-8.33-6.69-9.34-5.67L17.92,32.24Z"/><path class="cls-5" d="M47.59,58.68a1.18,1.18,0,0,1-.84-.35L37.2,51.4a1.18,1.18,0,0,1-.05-1.67L51.73,35.15a1.14,1.14,0,0,1,.8-.33,1.23,1.23,0,0,1,.85.35l7,9.61a1.15,1.15,0,0,1,0,1.62l-12,12A1.16,1.16,0,0,1,47.59,58.68Z"/><path class="cls-3" d="M52.53,35.07a1,1,0,0,1,.67.28l6.95,9.58a.91.91,0,0,1,0,1.29l-12,12a.91.91,0,0,1-1.29,0L37.35,51.2a.91.91,0,0,1,0-1.29L51.91,35.33a.89.89,0,0,1,.62-.26m0-.5h0a1.39,1.39,0,0,0-1,.41L37,49.55a1.41,1.41,0,0,0,0,2l0,0,0,0,9.55,6.94a1.43,1.43,0,0,0,1,.39,1.38,1.38,0,0,0,1-.4l12-12a1.36,1.36,0,0,0,.4-1,1.43,1.43,0,0,0-.39-1L53.6,35.06l0,0,0,0a1.4,1.4,0,0,0-1-.43Z"/><path class="cls-6" d="M49.61,48.5l3.1,3.1a.35.35,0,0,1,0,.5L47.78,57a.36.36,0,0,1-.51,0l-3.58-2.61a.36.36,0,0,1,0-.51l5.39-5.39A.36.36,0,0,1,49.61,48.5Z"/><path class="cls-7" d="M45.29,44.18l3,3a.36.36,0,0,1,0,.51l-5.6,5.59a.35.35,0,0,1-.5,0l-3.55-2.5a.35.35,0,0,1,0-.5l6.12-6.12A.36.36,0,0,1,45.29,44.18Z"/><path class="cls-8" d="M56.34,41.76l2.55,3.66a.35.35,0,0,1,0,.5L54,50.77a.35.35,0,0,1-.5,0L50.4,47.7a.36.36,0,0,1,0-.51l5.41-5.4A.35.35,0,0,1,56.34,41.76Z"/><path class="cls-9" d="M52.74,36.73l2.5,3.54a.35.35,0,0,1,0,.5l-5.6,5.6a.35.35,0,0,1-.5,0l-3-3a.36.36,0,0,1,0-.51l6.12-6.12A.35.35,0,0,1,52.74,36.73Z"/><path class="cls-10" d="M16.09,27.18a1.19,1.19,0,0,1-.84-.35L5.7,19.9a1.17,1.17,0,0,1,0-1.67L20.23,3.65a1.14,1.14,0,0,1,.8-.33,1.15,1.15,0,0,1,.84.35l7,9.61a1.15,1.15,0,0,1,0,1.61l-12,12A1.12,1.12,0,0,1,16.09,27.18Z"/><path class="cls-3" d="M21,3.57a.94.94,0,0,1,.67.28l7,9.58a.91.91,0,0,1,0,1.29l-12,12a.89.89,0,0,1-.63.26.94.94,0,0,1-.66-.28L5.85,19.7a.93.93,0,0,1,0-1.3L20.4,3.83A.89.89,0,0,1,21,3.57m0-.5h0a1.38,1.38,0,0,0-1,.4L5.47,18.05a1.43,1.43,0,0,0,0,2l0,0,0,0L15.1,27a1.42,1.42,0,0,0,1,.4,1.39,1.39,0,0,0,1-.41L29,15.07a1.41,1.41,0,0,0,0-2L22.1,3.55l0,0,0,0a1.45,1.45,0,0,0-1-.42Z"/><path class="cls-11" d="M18.1,17l3.1,3.1a.36.36,0,0,1,0,.51l-4.9,4.9a.36.36,0,0,1-.51,0l-3.59-2.62a.35.35,0,0,1,0-.5L17.6,17A.35.35,0,0,1,18.1,17Z"/><path class="cls-12" d="M13.79,12.68l3,3a.35.35,0,0,1,0,.5l-5.6,5.6a.36.36,0,0,1-.51,0l-3.54-2.5a.36.36,0,0,1,0-.51l6.12-6.12A.36.36,0,0,1,13.79,12.68Z"/><path class="cls-13" d="M24.84,10.26l2.54,3.65a.36.36,0,0,1,0,.51l-4.85,4.85a.36.36,0,0,1-.51,0l-3.1-3.11a.35.35,0,0,1,0-.5l5.4-5.41A.36.36,0,0,1,24.84,10.26Z"/><path class="cls-14" d="M21.24,5.22l2.5,3.54a.36.36,0,0,1,0,.51l-5.6,5.6a.36.36,0,0,1-.51,0l-3-3a.36.36,0,0,1,0-.51l6.12-6.12A.36.36,0,0,1,21.24,5.22Z"/><ellipse class="cls-15" cx="25.52" cy="39.66" rx="2.9" ry="10.61" transform="translate(-20.57 29.66) rotate(-45)"/><rect class="cls-3" x="23.15" y="38.84" width="0.8" height="5.57" rx="0.4" transform="translate(36.33 -4.46) rotate(45)"/><path class="cls-3" d="M44.32,42.92l-5.14-5.14a.49.49,0,0,1-.09-.69h0a.49.49,0,0,1,.69.09l5.14,5.14Z"/><path class="cls-16" d="M21.72,43.46c-3.58-3.58-8.87-4.15-12.13-1.41L23.12,55.59C25.86,52.33,25.29,47,21.72,43.46Z"/><ellipse class="cls-17" cx="16.36" cy="48.82" rx="2.34" ry="9.57" transform="translate(-29.73 25.86) rotate(-45)"/><rect class="cls-3" x="14.03" y="48.13" width="0.77" height="5.25" rx="0.38" transform="translate(40.11 4.67) rotate(45)"/><circle class="cls-18" cx="10.63" cy="54.54" r="1.51"/></g></svg>